<svg version="1.1" width="135" height="137" viewBox="10 7 135 137" xmlns="http://www.w3.org/2000/svg" xmlns:xlink="http://www.w3.org/1999/xlink">
  <defs>
    <linearGradient id="grad_1" x1="-34.8481" y1="212.5713" x2="-14.2246" y2="212.5713" gradientUnits="userSpaceOnUse">
      <stop offset="0.1517" stop-color="#00E1FF"/>
      <stop offset="0.4775" stop-color="#FFFF00"/>
      <stop offset="0.6798" stop-color="#FF9A0E"/>
      <stop offset="1" stop-color="#FF0000"/>
    </linearGradient>
    <linearGradient id="grad_2" x1="-81.3799" y1="170.0889" x2="-49.5835" y2="170.0889" gradientUnits="userSpaceOnUse">
      <stop offset="0.1517" stop-color="#00E1FF"/>
      <stop offset="0.4775" stop-color="#FFFF00"/>
      <stop offset="0.6798" stop-color="#FF9A0E"/>
      <stop offset="1" stop-color="#FF0000"/>
    </linearGradient>
  </defs>
  <!-- Exported by Scratch - http://scratch.mit.edu/ -->
  <g id="ID0.32988356426358223" transform="matrix(0.8265018463134766, 0.5629339814186096, -0.5629339814186096, 0.8265018463134766, 54.9, -45.15)">
    <g id="Back_Leg2">
      <g id="Hoof_3_">
        <path id="Fill_12_" fill="#808080" d="M 27.334 124.985 C 27.272 125.152 26.658 126.526 26.658 126.526 C 26.363 127.162 26.090 127.805 26.006 128.508 C 27.837 130.658 34.115 132.041 36.492 130.461 C 35.678 129.362 34.931 128.223 34.259 127.051 L 33.731 125.655 L 34.275 125.108 C 29.423 121.959 26.873 124.847 26.873 124.847 L 26.873 124.847 C 27.127 124.868 27.363 124.905 27.334 124.985 Z "/>
        <path id="Outline_12_" d="M 38.659 130.075 C 38.204 129.091 36.982 127.897 36.337 126.929 C 36.192 126.711 36.061 126.494 35.924 126.279 C 35.172 125.161 34.625 124.785 34.625 124.785 L 34.300 125.114 L 33.756 125.661 L 34.284 127.057 C 34.956 128.229 35.703 129.369 36.517 130.467 C 34.140 132.046 27.862 130.665 26.031 128.514 C 26.115 127.810 26.388 127.168 26.683 126.531 C 26.683 126.531 27.296 125.158 27.359 124.990 C 27.388 124.912 27.152 124.872 26.899 124.853 C 26.622 124.832 26.325 124.834 26.325 124.834 L 25.512 126.138 C 25.089 127.346 23.315 128.398 25.060 129.824 C 29.945 133.815 39.974 132.901 38.659 130.075 Z "/>
      </g>
      <g id="Leg_3_">
        <path id="Fill_11_" fill="#FFFFFF" d="M 38.693 100.966 C 37.412 103.801 35.610 105.764 33.290 107.889 C 32.203 108.885 31.949 110.995 31.671 112.338 C 30.821 116.426 29.167 119.512 26.269 122.723 C 26.152 123.564 27.892 124.263 28.063 124.369 C 30.094 125.213 34.552 126.292 33.950 125.088 C 30.958 119.104 35.417 110.604 43.529 106.453 C 43.529 106.453 53.691 101.235 55.249 91.985 C 55.181 91.057 55.042 90.033 54.812 88.875 C 54.343 86.506 49.874 81.155 45.983 81.296 C 45.520 81.313 44.982 81.514 44.421 81.815 C 42.856 83.788 39.251 86.281 38.692 91.365 C 38.348 94.505 40.071 97.913 38.693 100.966 Z "/>
        <path id="Outline_11_" d="M 56.562 91.375 C 56 90.563 55.302 91.687 55.302 91.687 C 55.287 91.788 55.266 91.885 55.249 91.985 C 53.691 101.235 43.529 106.453 43.529 106.453 C 35.417 110.603 30.959 119.103 33.950 125.088 C 34.552 126.292 30.094 125.213 28.063 124.369 C 27.892 124.263 26.152 123.563 26.269 122.723 C 29.167 119.512 30.821 116.426 31.671 112.338 C 31.949 110.995 32.203 108.885 33.290 107.889 C 35.610 105.764 37.412 103.801 38.693 100.966 C 40.071 97.913 38.348 94.505 38.693 91.364 C 39.252 86.280 42.857 83.787 44.422 81.814 C 44.573 81.624 44.713 81.436 44.821 81.253 L 44.470 80.686 C 41.839 81.597 37.836 87.527 37.074 89.798 C 34.914 96.222 42.552 99.349 31.386 106.484 C 30.920 106.782 30.717 107.087 30.726 107.476 C 30.947 117.234 23.794 121.267 23.794 122.804 C 23.794 123.646 24.830 124.787 25.667 125.216 C 29.272 127.062 33.813 127.478 35.725 126.741 C 35.974 126.645 35.846 126.221 35.894 125.953 C 35.367 125.119 34.927 124.218 34.733 123.215 C 33.687 117.800 37.856 111.355 43.043 108.862 C 53.897 103.225 56.314 94.249 56.564 93.436 C 56.814 92.623 57.125 92.188 56.562 91.375 Z "/>
      </g>
    </g>
    <g id="Front_Leg2">
      <g id="Hoof_1_">
        <path id="Fill_6_" fill="#808080" d="M 121.202 65.353 C 121.221 65.530 121.287 67.034 121.287 67.034 C 121.308 67.735 121.351 68.432 121.592 69.099 C 124.192 70.204 130.426 68.630 131.846 66.153 C 130.626 65.535 129.448 64.850 128.322 64.102 L 127.225 63.091 L 127.467 62.358 C 121.718 61.712 120.729 65.436 120.729 65.436 L 120.729 65.436 C 120.965 65.339 121.193 65.268 121.202 65.353 Z "/>
        <path id="Outline_6_" d="M 133.609 64.838 C 132.761 64.161 131.134 63.640 130.124 63.061 C 129.897 62.932 129.684 62.796 129.465 62.665 C 128.291 62.001 127.634 61.910 127.634 61.910 L 127.489 62.349 L 127.248 63.082 L 128.345 64.093 C 129.471 64.841 130.650 65.526 131.868 66.144 C 130.448 68.621 124.215 70.195 121.614 69.090 C 121.374 68.423 121.332 67.726 121.310 67.025 C 121.310 67.025 121.244 65.521 121.225 65.344 C 121.215 65.259 120.988 65.331 120.751 65.427 C 120.495 65.533 120.230 65.668 120.230 65.668 L 120.086 67.198 C 120.247 68.467 119.131 70.202 121.330 70.697 C 127.488 72.083 136.049 66.777 133.609 64.838 Z "/>
      </g>
      <g id="Leg_1_">
        <path id="Fill_5_" fill="#FFFFFF" d="M 114.453 52.217 C 114.454 52.216 114.454 52.216 114.453 52.217 C 114.572 52.274 114.683 52.350 114.790 52.435 C 117.444 54.291 117.589 61.413 118.232 64.249 C 118.527 65.551 125.853 63.937 127.253 62.863 C 128.354 62.018 121.465 57.238 119.851 53.783 C 119.070 52.103 118.414 50.337 118.187 48.514 C 118.121 47.965 118.279 47.387 118.097 46.860 C 117.787 45.948 115.742 46.309 114.993 46.365 C 110.181 46.732 108.475 51.600 104.727 53.700 C 103.905 54.161 95.209 58.699 94.770 58.803 C 93.999 58.984 93.655 57.865 93.501 57.374 C 93.501 57.373 93.504 57.370 93.504 57.368 C 92.980 57.765 92.529 58.228 92.206 58.786 C 90.803 61.209 88.842 67.559 91.025 69.545 C 92.196 70.610 93.663 71.330 95.213 71.670 C 95.135 71.402 95.071 71.147 95.011 70.977 C 104.156 66 102.947 53.131 114.453 52.217 Z "/>
        <path id="Outline_5_" d="M 128.853 61.442 C 125.201 58.545 122.534 55.377 121.024 50.609 C 120.661 49.456 120.415 46.916 119.946 46.077 C 117.848 42.335 112.295 43.983 109.997 46.571 C 106.692 50.293 105.916 51.905 100.608 53.770 C 99.711 54.086 95.651 56.227 94.796 56.565 C 94.119 56.833 93.668 56.794 93.506 57.368 C 93.506 57.370 93.503 57.372 93.503 57.374 C 93.656 57.865 94.001 58.984 94.772 58.803 C 95.211 58.699 103.907 54.161 104.729 53.700 C 108.477 51.600 110.182 46.732 114.995 46.365 C 115.743 46.309 117.789 45.948 118.099 46.860 C 118.281 47.387 118.122 47.965 118.189 48.514 C 118.417 50.337 119.072 52.103 119.853 53.783 C 121.467 57.237 128.356 62.018 127.255 62.863 C 125.855 63.938 118.528 65.551 118.234 64.249 C 117.590 61.413 117.446 54.291 114.792 52.435 C 114.682 52.358 114.575 52.274 114.456 52.216 C 114.456 52.216 114.456 52.216 114.455 52.217 C 102.947 53.131 104.156 66 95.014 70.978 C 95.075 71.148 95.138 71.403 95.216 71.671 C 95.403 72.307 95.684 73.017 96.283 72.854 C 96.984 72.663 98.594 70.871 100.190 68.860 C 102.069 66.492 103.930 63.820 104.269 63.084 C 104.936 61.632 105.452 60.055 106.548 58.564 C 107.425 57.373 108.672 56.238 110.671 55.266 C 111.233 54.993 112.226 54.715 113.077 54.328 L 113.078 54.332 C 113.109 54.313 113.137 54.304 113.167 54.287 C 113.263 54.242 113.355 54.196 113.446 54.147 C 114.472 53.730 115.023 54.385 115.301 54.983 C 116.051 57.399 116.558 60.018 116.612 62.476 C 116.631 63.365 116.358 65.165 117.016 65.856 C 117.665 66.536 119.225 66.209 120.078 66.145 C 120.074 66.163 120.066 66.179 120.062 66.197 C 120.663 66.063 130.917 64.625 128.853 61.442 Z "/>
      </g>
    </g>
    <g id="Mane">
      <path id="Fill_10_" fill="url(#grad_1)" d="M 65.851 42.680 C 73.145 40.612 68.869 33.396 76.619 34.400 C 78.017 27.219 79.431 25.489 78.897 24.528 C 78.769 24.409 78.706 24.159 78.588 24.051 C 77.737 23.251 76.064 22.918 74.898 23.062 C 71.932 23.428 71.070 26.619 67.651 25.741 C 64.598 24.956 63.652 21.482 67.165 19.773 C 60.244 19.773 60.702 24.851 65.703 27.286 C 66.712 27.649 67.297 27.950 67.859 28.053 C 70.988 28.626 71.559 29.312 71.559 29.312 C 69.463 30.343 67.874 31.750 67.410 32.603 C 66.467 34.336 69.376 37.798 67.917 39.734 C 67.124 40.787 64.337 41.501 63.569 38.486 C 58.438 43.585 66.965 46.658 71.698 41.505 C 72.353 43.645 69.339 45.411 66.158 45.547 C 65.609 46.020 65.052 46.482 65.177 47.235 C 65.405 48.615 66.781 50.145 65.972 51.526 C 64.954 53.260 63.410 54.312 59.826 52.965 C 61.813 55.937 64.475 56.144 66.999 54.787 C 67.120 55.444 66.718 55.944 66.035 56.258 C 65.915 56.353 65.790 56.443 65.660 56.526 C 64.379 57.849 64.769 60.440 63.868 61.912 C 63.868 61.967 63.870 62.016 63.870 62.073 C 63.836 62.073 63.794 62.081 63.757 62.084 C 63.486 62.455 63.114 62.741 62.577 62.887 C 64.798 64.085 67.596 59.449 70.230 58.931 C 70.230 58.931 71.996 58.671 73.581 53.190 C 73.165 53.412 72.693 53.611 72.352 53.881 C 69.774 55.465 69.380 59.885 65.595 59.471 C 67.298 58.869 67.492 58.662 68.058 57.980 C 69.412 55.618 70.414 52.065 73.816 52.335 C 74.218 50.789 74.602 48.886 74.934 46.530 C 71.383 46.915 70.601 53.172 65.433 53.198 C 70.038 52.584 70.183 45.400 75.160 44.814 C 75.213 44.369 75.264 43.910 75.314 43.437 C 75.647 40.242 76.033 37.613 76.427 35.434 C 70.200 35.213 74.105 42.499 65.851 42.680 Z "/>
      <path id="Outline_10_" d="M 79.748 24.321 C 79.741 24.289 79.733 24.265 79.727 24.235 C 79.701 24.123 79.674 24.007 79.645 23.915 C 79.593 22.938 77.315 21.551 75.981 21.374 C 72.486 20.912 71.691 23.431 69.184 24.258 C 67.562 24.791 66.239 23.243 66.798 21.868 C 67.190 20.901 68.617 20.761 69.498 20.384 C 68.892 19.464 67.523 18.725 66.391 18.489 C 64.605 18.116 62.719 18.901 61.620 20.178 C 59.764 22.336 61.403 26.763 64.175 27.814 L 64.161 27.820 L 64.416 27.898 C 64.487 27.920 64.557 27.947 64.630 27.963 L 69.464 29.439 C 69.464 29.439 68.262 29.676 66.162 32.401 C 63.847 34.752 69.195 38.112 66.067 39.669 C 64.480 40.459 64.749 37.558 65.307 36.357 C 63.098 36.658 60.758 38.993 60.220 40.931 C 59.806 42.420 61.889 44.764 63.487 45.245 C 63.676 45.302 63.870 45.345 64.065 45.386 C 64.055 45.398 64.042 45.409 64.031 45.421 C 62.202 47.548 65.181 49.181 64.668 50.568 C 63.347 54.142 58.783 51.098 58.315 50.460 C 57.491 55.059 61.569 56.790 64.422 56.626 C 62.922 58.020 63.660 61.012 62.578 61.611 C 61.866 62.006 60.631 61.446 60.103 60.993 C 60.031 62.626 61.099 64.075 62.354 64.166 C 65.661 64.405 67.096 61.921 69.565 61.820 C 74.755 60.014 75.813 52.501 76.625 42.681 C 77.437 32.861 79.437 28.938 79.775 26.563 C 79.915 25.578 79.859 24.849 79.748 24.321 Z M 75.159 44.815 C 70.182 45.401 70.037 52.585 65.432 53.199 C 70.600 53.173 71.382 46.916 74.933 46.531 C 74.601 48.886 74.217 50.789 73.815 52.336 C 70.413 52.066 69.411 55.619 68.057 57.981 C 67.491 58.663 67.297 58.870 65.594 59.472 C 69.379 59.886 69.773 55.466 72.351 53.882 C 72.692 53.611 73.164 53.412 73.580 53.191 C 71.995 58.672 70.229 58.932 70.229 58.932 C 67.595 59.450 64.797 64.086 62.576 62.888 C 63.113 62.742 63.484 62.456 63.756 62.085 C 63.796 62.030 63.832 61.972 63.867 61.914 C 64.768 60.442 64.379 57.851 65.659 56.528 C 65.719 56.466 65.773 56.401 65.840 56.345 C 65.908 56.319 65.970 56.289 66.033 56.260 C 66.716 55.946 67.118 55.446 66.997 54.789 C 64.473 56.146 61.811 55.939 59.824 52.967 C 63.408 54.314 64.952 53.262 65.970 51.528 C 66.779 50.147 65.403 48.617 65.175 47.237 C 65.050 46.484 65.607 46.021 66.156 45.549 C 69.336 45.413 72.351 43.648 71.696 41.507 C 66.963 46.660 58.436 43.587 63.567 38.488 C 64.335 41.503 67.122 40.789 67.915 39.736 C 69.374 37.800 66.465 34.338 67.408 32.605 C 67.872 31.751 69.461 30.345 71.557 29.314 C 71.557 29.314 70.986 28.628 67.857 28.055 C 67.295 27.952 66.710 27.651 65.701 27.288 C 60.700 24.852 60.242 19.775 67.163 19.775 C 63.650 21.484 64.596 24.958 67.649 25.743 C 71.068 26.621 71.930 23.430 74.896 23.064 C 76.062 22.920 77.735 23.253 78.586 24.053 C 78.703 24.161 78.767 24.411 78.895 24.530 C 79.428 25.491 78.015 27.221 76.617 34.402 C 68.867 33.399 73.143 40.614 65.849 42.682 C 74.103 42.500 70.198 35.215 76.424 35.436 C 76.029 37.615 75.644 40.244 75.311 43.439 C 75.263 43.911 75.212 44.370 75.159 44.815 Z "/>
    </g>
    <g id="Body">
      <path id="Fill_4_" fill="#FFFFFF" d="M 87.995 41.110 C 86.240 30.595 83.750 30.875 80.750 30.180 C 77.750 29.485 77.210 30.975 77.210 30.975 L 77.118 32.618 C 77.044 33.402 76.956 34.200 76.939 34.334 C 76.267 39.709 76.168 45.177 75.335 50.527 C 74.040 58.830 69.277 65.110 61.607 69.523 C 56.448 72.491 47.119 73.738 44.895 79.286 C 44.268 80.851 43.889 83.809 43.661 85.917 C 43.539 87.042 42.258 100.199 63.811 93.117 L 63.811 93.060 C 65.537 92.332 68.301 91.252 70.158 90.869 C 75.200 89.824 87.435 87.666 90.234 83.533 C 90.300 83.435 90.880 82.462 90.920 82.351 C 90.920 82.351 97.888 73.198 96.402 62.766 C 95.366 55.020 88.445 49.105 87.995 41.110 Z "/>
      <path id="Outline_4_" d="M 97.568 59.484 C 95.879 53.231 89.964 47.606 89.751 40.932 C 89.751 40.932 89.063 31.866 84.750 29.995 C 80.437 28.124 75.028 26.997 75.202 33.248 C 75.195 33.591 74.300 43.958 73.952 48.114 C 73.584 52.499 71.117 57.540 68.766 61.198 C 63.974 68.653 50.129 69.569 45.942 75.850 L 45.942 75.849 C 43.050 79.700 43.536 82.740 43.241 85.141 C 42.899 87.930 41.918 91.582 47.668 95.507 C 53.418 99.432 65 94.615 65 94.615 C 65.005 94.611 65.008 94.607 65.013 94.602 C 67.068 94.159 69.674 92.787 71.330 92.267 C 77.305 90.394 84.988 91.013 89.921 87.117 C 90.572 86.601 91.599 85.669 92.364 84.703 L 92.366 84.706 C 92.376 84.692 92.385 84.679 92.394 84.665 C 92.590 84.415 92.771 84.164 92.919 83.916 C 101.718 71.194 97.689 59.925 97.582 59.498 C 97.578 59.488 97.572 59.490 97.568 59.484 Z M 90.920 82.352 C 90.880 82.462 90.301 83.436 90.234 83.534 C 87.435 87.667 75.200 89.825 70.158 90.870 C 68.301 91.254 65.537 92.334 63.811 93.061 L 63.811 93.118 C 42.258 100.200 43.540 87.043 43.661 85.918 C 43.889 83.811 44.267 80.853 44.895 79.287 C 47.119 73.739 56.448 72.492 61.607 69.524 C 69.277 65.111 74.040 58.831 75.336 50.528 C 76.169 45.178 76.268 39.710 76.940 34.335 C 76.957 34.201 77.044 33.403 77.119 32.619 L 77.211 30.976 C 77.211 30.976 77.751 29.486 80.751 30.181 C 83.751 30.876 86.241 30.596 87.996 41.111 C 88.446 49.106 95.367 55.021 96.403 62.767 C 97.888 73.199 90.920 82.352 90.920 82.352 Z "/>
    </g>
    <g id="Back_Leg1">
      <g id="Hoof_2_">
        <path id="Fill_8_" fill="#808080" d="M 51.346 129.256 C 51.305 129.450 50.857 131.067 50.857 131.067 C 50.637 131.817 50.443 132.571 50.467 133.361 C 52.842 135.428 59.991 135.910 62.350 133.774 C 61.271 132.699 60.258 131.566 59.323 130.385 L 58.510 128.935 L 59.019 128.242 C 53.149 125.575 50.817 129.181 50.817 129.181 L 50.817 129.181 C 51.099 129.160 51.366 129.163 51.346 129.256 Z "/>
        <path id="Outline_8_" d="M 64.673 132.988 C 64.008 131.978 62.463 130.865 61.592 129.904 C 61.397 129.688 61.216 129.471 61.030 129.256 C 60.015 128.149 59.350 127.825 59.350 127.825 L 59.045 128.241 L 58.536 128.934 L 59.349 130.384 C 60.285 131.565 61.297 132.697 62.376 133.773 C 60.018 135.909 52.868 135.427 50.493 133.360 C 50.469 132.570 50.663 131.816 50.883 131.066 C 50.883 131.066 51.331 129.450 51.372 129.255 C 51.392 129.162 51.125 129.159 50.842 129.180 C 50.533 129.203 50.206 129.255 50.206 129.255 L 49.526 130.827 C 49.259 132.227 47.478 133.681 49.638 134.964 C 55.689 138.557 66.591 135.885 64.673 132.988 Z "/>
      </g>
      <g id="Leg_2_">
        <path id="Fill_9_" fill="#FFFFFF" d="M 42.925 84.904 C 41.331 90.808 45.217 96.372 45.536 101.667 C 45.749 105.219 44.775 110.805 43.014 114.895 C 41.818 117.673 48.711 119.520 50.036 123.506 C 50.660 125.376 48.544 128.996 51.937 129 L 55.249 129.062 C 57.640 128.868 59.481 128.288 58.499 127.124 C 54.483 122.366 48.909 117.547 50.249 112.312 C 51.360 107.975 57.649 104.796 60.300 100.058 C 61.986 97.042 62.200 94.174 63.361 91.077 C 63.506 91.048 63.756 91.126 63.896 91.240 C 63.804 90.530 63.593 89.839 63.151 89.169 C 61.621 86.853 59.795 84.415 57.330 83.016 C 54.808 81.584 51.325 80.402 48.299 80.400 C 46.137 80.399 44.660 81.065 43.671 82.109 C 44.177 82.358 43.099 84.258 42.925 84.904 Z "/>
        <path id="Outline_9_" d="M 58.805 129.893 C 60.642 129.675 61.266 127.999 60.423 127.041 C 57.469 123.687 53.291 120.279 52.108 116.293 C 50.317 110.252 58.260 107.496 60.977 103.231 C 62.857 100.281 65.141 94.758 63.993 91.365 C 63.978 91.321 63.944 91.279 63.897 91.241 C 63.757 91.127 63.507 91.049 63.362 91.078 C 62.201 94.176 61.987 97.044 60.301 100.059 C 57.650 104.797 51.361 107.976 50.250 112.313 C 48.910 117.548 54.484 122.368 58.500 127.125 C 59.482 128.288 57.641 128.868 55.250 129.063 L 51.938 129 C 48.544 128.996 50.661 125.376 50.037 123.506 C 48.712 119.520 41.819 117.673 43.015 114.895 C 44.776 110.805 45.750 105.219 45.537 101.667 C 45.218 96.372 41.332 90.809 42.926 84.904 C 43.100 84.258 44.178 82.358 43.673 82.108 C 43.582 82.063 43.447 82.064 43.241 82.142 C 41.189 82.915 40.614 91.311 42.958 96.124 C 43.705 97.657 43.731 101.942 43.555 105.415 C 43.376 108.999 40.183 114.254 40.540 116.870 C 40.882 119.373 46.715 120.622 47.803 122.705 C 50.962 128.755 43.661 131.688 58.805 129.893 Z "/>
      </g>
    </g>
    <g id="Tail">
      <path id="Fill_7_" fill="url(#grad_2)" d="M 20.037 74.549 C 16.664 81.111 20.476 87.789 20.555 94.440 C 20.598 98.130 17.488 100.268 13.622 99.698 C 15.692 101.096 19.090 102.250 21.626 101.651 C 24.257 101.026 26.096 99.204 26.593 96.772 C 27.494 92.364 21.781 81.460 26.657 79.227 C 31.199 77.149 33.288 85.922 40.420 83.405 C 40.654 83.323 41.059 83.150 41.512 82.969 C 37.487 82.240 36.783 73.265 31.989 72.607 C 27.731 72.021 23.558 75.059 21.694 78.290 C 19.695 81.751 20.977 85.236 21.956 88.744 C 22.748 91.577 25.507 97.851 22.417 99.555 C 21.484 100.067 19.663 100.415 18.588 100.266 C 23.344 98.908 22.799 94.951 22.417 92.497 C 21.436 86.197 17.354 79.400 23.296 73.743 C 26.769 70.436 34.145 68.940 37.317 73.174 C 38.921 75.318 39.427 81.010 41.783 82.132 C 42.124 82.294 42.719 82.173 43.124 82.214 L 43.124 82.211 C 43.124 82.211 43.611 82.049 43.680 81.065 C 42.558 61.251 25.932 63.080 20.037 74.549 Z "/>
      <path id="Outline_7_" d="M 42.542 69.007 C 40.917 66.840 38.173 64.857 35.352 64.319 C 29.582 63.219 22.192 66.357 19.313 71.044 C 13.717 80.155 18.213 85.486 18.329 94.583 C 18.390 99.283 11.675 99.021 10 95.812 C 10.810 100.910 19.078 105.005 24.122 102.435 C 33.020 97.904 24.317 82.886 27.099 81.613 C 32.459 79.158 32.026 89.996 41.145 84.447 C 41.518 84.220 42.297 83.834 42.957 83.411 L 42.957 83.414 C 44.706 82.744 44.820 81.254 44.820 81.254 C 45.365 78.775 44.239 71.266 42.542 69.007 Z M 43.125 82.211 L 43.125 82.214 C 42.719 82.173 42.125 82.294 41.784 82.132 C 39.428 81.010 38.922 75.318 37.318 73.174 C 34.146 68.940 26.770 70.436 23.297 73.743 C 17.355 79.400 21.437 86.197 22.418 92.497 C 22.800 94.950 23.345 98.907 18.589 100.266 C 19.664 100.415 21.485 100.067 22.418 99.555 C 25.508 97.852 22.749 91.577 21.957 88.744 C 20.978 85.236 19.696 81.751 21.695 78.290 C 23.559 75.059 27.732 72.021 31.990 72.607 C 36.785 73.265 37.489 82.240 41.513 82.969 C 41.059 83.150 40.655 83.323 40.421 83.405 C 33.289 85.923 31.200 77.149 26.658 79.227 C 21.782 81.460 27.495 92.364 26.594 96.772 C 26.097 99.204 24.258 101.026 21.627 101.651 C 19.091 102.250 15.693 101.096 13.623 99.698 C 17.489 100.268 20.599 98.131 20.556 94.440 C 20.477 87.790 16.665 81.112 20.038 74.549 C 25.933 63.080 42.559 61.251 43.682 81.065 C 43.612 82.049 43.125 82.211 43.125 82.211 Z "/>
    </g>
    <g id="Front_Leg1">
      <g id="Hoof">
        <path id="Fill_3_" fill="#808080" d="M 116.944 97.506 C 116.903 97.700 116.455 99.317 116.455 99.317 C 116.235 100.067 116.041 100.821 116.065 101.611 C 118.440 103.678 125.589 104.160 127.948 102.024 C 126.869 100.949 125.856 99.816 124.921 98.635 L 124.108 97.185 L 124.617 96.492 C 118.747 93.825 116.415 97.431 116.415 97.431 L 116.415 97.431 C 116.697 97.410 116.964 97.413 116.944 97.506 Z "/>
        <path id="Outline_3_" d="M 130.271 101.238 C 129.606 100.228 128.061 99.115 127.190 98.154 C 126.995 97.938 126.814 97.721 126.628 97.506 C 125.613 96.399 124.948 96.075 124.948 96.075 L 124.643 96.491 L 124.134 97.184 L 124.947 98.634 C 125.883 99.815 126.895 100.947 127.974 102.023 C 125.616 104.159 118.466 103.677 116.091 101.610 C 116.067 100.820 116.261 100.066 116.481 99.316 C 116.481 99.316 116.929 97.700 116.970 97.505 C 116.990 97.412 116.723 97.409 116.440 97.430 C 116.131 97.453 115.804 97.505 115.804 97.505 L 115.124 99.077 C 114.857 100.477 113.076 101.931 115.236 103.214 C 121.287 106.807 132.189 104.135 130.271 101.238 Z "/>
      </g>
      <g id="Leg">
        <path id="Fill_2_" fill="#FFFFFF" d="M 89.064 79.293 C 98.619 83.359 106.075 76.952 114.138 80.279 C 115.943 83.437 117.589 88.581 116.929 92.148 C 116.633 93.740 114.788 94.739 114.540 96.392 C 115.146 97.461 117.506 97.638 118.405 97.737 C 120.578 97.976 124.082 98.125 123.787 96.912 C 122.651 92.240 119.296 87.810 119.629 82.671 C 123.541 77.930 117.501 74.300 114.679 74.760 C 106.562 76.083 106.033 74.397 99.416 71.010 C 97.469 70.012 94.614 70.217 93.824 69.813 C 92.509 69.888 91.208 70.102 90.016 70.600 C 87.162 71.792 85.692 74.545 87.160 77.442 C 87.482 78.078 87.985 78.944 88.608 79.777 C 88.702 79.564 88.852 79.386 89.064 79.293 Z "/>
        <path id="Outline_2_" d="M 125.725 96.332 C 125.725 96.332 125.745 96.326 125.747 96.324 C 124.018 93.986 122.719 91.548 121.791 88.685 C 119.464 81.509 126.896 79.474 120.396 74.551 C 114.474 70.069 112.769 76.489 102.508 71.114 C 101.881 70.786 93.825 66.926 93.609 69.525 C 93.598 69.649 93.682 69.739 93.825 69.812 C 94.615 70.216 97.470 70.011 99.417 71.009 C 106.033 74.396 106.563 76.082 114.680 74.759 C 117.502 74.299 123.542 77.929 119.630 82.670 C 119.297 87.810 122.652 92.239 123.788 96.911 C 124.083 98.124 120.579 97.975 118.406 97.736 C 117.507 97.637 115.147 97.461 114.541 96.391 C 114.789 94.738 116.634 93.739 116.930 92.147 C 117.590 88.580 115.944 83.436 114.139 80.278 C 106.076 76.951 98.619 83.358 89.065 79.292 C 88.852 79.385 88.703 79.563 88.610 79.775 C 88.452 80.137 88.462 80.598 88.616 80.899 C 90.495 84.532 99.137 82.606 102.255 81.764 C 105.984 80.755 108.335 81.350 111.980 82.051 C 113.338 82.311 113.732 82.384 114.232 83.658 C 115.302 86.400 115.882 89.943 114.320 92.640 C 113.632 93.826 112.084 94.663 111.980 96.101 C 112.029 96.181 112.099 96.246 112.153 96.322 C 112.555 96.752 114.250 98.378 117.359 98.986 L 117.378 99.035 L 117.390 98.994 C 117.390 98.994 121.218 99.327 124.819 98.371 C 125.212 98.248 125.601 98.130 126.012 97.975 C 126.013 97.975 126.013 97.975 126.013 97.974 C 126.014 97.972 126.390 97.270 125.725 96.332 Z "/>
      </g>
    </g>
    <g id="Head">
      <g id="Head_1_">
        <path id="Fill_1_" fill="#FFFFFF" d="M 85.600 39.938 C 86.952 39.341 88.350 39.296 89.608 38.455 C 91.920 36.906 92.444 34.743 92.172 32.233 C 92.971 31.470 94.104 31.122 95.233 31.038 C 97.749 34.995 103.473 35.252 104.192 30.049 C 101.776 29.750 98.285 30.206 97.258 27.576 L 97.483 27.369 C 99.346 27.336 106.153 26.442 106.442 24.526 C 106.766 22.381 104.254 16.753 101.176 17.975 C 98.934 18.864 97.680 21.728 94.872 22.548 C 91.723 23.469 90.911 24.329 87.850 22.837 C 86.079 21.973 82.960 22.473 81.327 23.742 C 78.635 25.833 77.731 29.520 76.958 28.976 C 74.084 26.956 71.391 27.177 70.026 27.369 C 68.783 27.545 66.637 28.159 66.064 29.265 C 68.796 31.473 75.126 31.729 77.211 30.975 C 77.238 30.965 77.233 31.183 77.213 31.507 C 77.119 32.618 76.751 37.167 80.209 39.459 C 82.116 40.723 85.600 39.938 85.600 39.938 Z "/>
        <path id="Outline_1_" d="M 99.195 16.202 C 97.207 17.698 95.812 19.771 93.613 21.146 C 88.308 24.466 83.345 14.040 77.408 27.080 C 73.738 25.222 65.059 24.694 63.544 29.346 C 66.618 31.606 70.845 32.742 74.798 32.317 C 75.192 32.253 75.571 32.140 75.944 32.008 C 76.749 31.723 76.417 31.833 77.212 31.507 C 77.233 31.183 77.237 30.965 77.210 30.975 C 75.125 31.729 68.795 31.473 66.063 29.265 C 66.636 28.159 68.782 27.545 70.025 27.369 C 71.390 27.177 74.083 26.956 76.957 28.976 C 77.730 29.520 78.634 25.833 81.326 23.742 C 82.960 22.473 86.079 21.973 87.849 22.837 C 90.911 24.329 91.722 23.469 94.871 22.548 C 97.679 21.728 98.933 18.864 101.175 17.975 C 104.252 16.753 106.765 22.381 106.441 24.526 C 106.152 26.442 99.345 27.336 97.482 27.369 L 97.257 27.576 C 98.283 30.206 101.775 29.750 104.191 30.049 C 103.472 35.252 97.748 34.995 95.232 31.038 C 94.103 31.122 92.970 31.470 92.171 32.233 C 92.442 34.743 91.918 36.906 89.607 38.455 C 88.349 39.296 86.951 39.341 85.599 39.938 C 85.599 39.938 85.415 40.667 86.624 40.998 C 90.482 42.055 93.982 37.802 93.726 34.493 C 94.331 34.091 94.880 33.840 95.419 33.741 C 96.142 34.343 96.851 34.774 97.571 35.077 C 100.971 36.502 106.216 34.676 106.214 30.461 C 106.213 27.623 102.704 29.572 101.174 28.483 C 102.818 27.616 106.080 27.857 107.207 26.504 C 111.102 21.824 103.066 13.288 99.195 16.202 Z "/>
      </g>
      <path id="Back_Nostril" d="M 102.838 19.622 C 103.080 19.622 103.299 19.676 103.458 19.762 C 103.617 19.849 103.715 19.968 103.715 20.100 C 103.715 20.232 103.617 20.351 103.458 20.438 C 103.299 20.524 103.080 20.578 102.838 20.578 C 102.596 20.578 102.377 20.524 102.218 20.438 C 102.059 20.351 101.961 20.232 101.961 20.100 C 101.961 19.968 102.059 19.849 102.218 19.762 C 102.377 19.676 102.596 19.622 102.838 19.622 Z "/>
      <path id="Front_Nostril" d="M 102.592 22.135 C 103.023 22.135 103.414 22.233 103.698 22.393 C 103.981 22.552 104.156 22.771 104.156 23.014 C 104.156 23.257 103.981 23.476 103.698 23.635 C 103.414 23.795 103.023 23.893 102.592 23.893 C 102.161 23.893 101.770 23.795 101.486 23.635 C 101.203 23.476 101.028 23.257 101.028 23.014 C 101.028 22.771 101.203 22.552 101.486 22.393 C 101.770 22.233 102.161 22.135 102.592 22.135 Z "/>
      <path id="Back_Eye" d="M 87.695 24.150 C 88.293 23.709 88.339 22.962 87.950 22.358 C 87.552 21.737 88.568 21.190 88.968 21.811 C 89.600 22.792 89.096 23.924 88.127 24.640 C 87.770 24.902 87.339 24.414 87.695 24.150 Z "/>
      <path id="Front_Eye" d="M 86.045 28.917 C 86.977 28.561 86.981 27.355 86.457 26.547 C 85.957 25.776 87.219 25.091 87.719 25.861 C 88.677 27.340 88.296 29.473 86.593 30.122 C 85.715 30.457 85.166 29.251 86.045 28.917 Z "/>
    </g>
    <g id="Horn">
      <path id="Fill" fill="#FBB03B" d="M 79.445 23.593 C 81.049 23.973 82.376 22.972 82.687 21.978 C 79.804 18.359 75.695 13.454 71.975 9.650 C 73.914 14.255 77.166 19.130 79.445 23.593 Z "/>
      <path id="Outline" d="M 84.357 21.676 C 83.214 19.623 72.101 6.781 70.079 7.002 C 69.342 7.761 76.023 21.761 78.529 24.918 C 82.012 25.988 85.182 23.152 84.357 21.676 Z M 77.943 16.325 C 78.492 17.365 78.381 19.383 77.586 20.173 C 77.248 19.578 76.904 18.979 76.559 18.378 C 76.600 18.347 76.640 18.316 76.673 18.263 C 77.174 17.480 77.446 16.546 77.418 15.622 C 77.575 15.804 77.730 15.984 77.886 16.166 C 77.906 16.220 77.912 16.267 77.943 16.325 Z M 75.873 13.858 C 76.331 14.867 76.365 16.489 75.973 17.355 C 75.551 16.619 75.132 15.882 74.722 15.143 C 75.009 14.458 75.145 13.707 75.080 12.970 C 75.345 13.264 75.609 13.561 75.873 13.858 Z M 73.726 11.493 C 73.935 12.175 74.008 13.008 73.955 13.727 C 73.224 12.356 72.541 10.991 71.976 9.650 C 72.551 10.239 73.137 10.860 73.726 11.493 Z M 78.094 21.083 C 78.123 21.064 78.155 21.055 78.184 21.026 C 78.960 20.274 79.496 19.268 79.622 18.221 C 79.766 18.393 79.910 18.566 80.052 18.737 C 80.058 18.763 80.054 18.781 80.063 18.808 C 80.410 19.924 79.913 21.909 78.971 22.551 C 78.950 22.566 78.939 22.585 78.920 22.601 C 78.652 22.099 78.378 21.593 78.094 21.083 Z M 79.445 23.593 C 79.426 23.557 79.406 23.521 79.388 23.485 C 79.395 23.481 79.402 23.481 79.409 23.476 C 80.457 22.762 81.250 21.667 81.472 20.468 C 81.895 20.989 82.303 21.496 82.687 21.978 C 82.376 22.972 81.050 23.973 79.445 23.593 Z "/>
    </g>
  </g>
</svg>