<svg version="1.1" width="58" height="48" viewBox="-1 -1 58 48" xmlns="http://www.w3.org/2000/svg" xmlns:xlink="http://www.w3.org/1999/xlink">
  <defs>
    <linearGradient id="grad_1" x1="352.5928" y1="1042.4482" x2="352.5928" y2="1139.9414" gradientUnits="userSpaceOnUse">
      <stop offset="0" stop-color="#EE2A7B"/>
      <stop offset="1" stop-color="#811150"/>
    </linearGradient>
  </defs>
  <!-- Exported by Scratch - http://scratch.mit.edu/ -->
  <g id="ID0.16137408139184117" transform="matrix(1, 0, 0, 1, -0.3, 0.75)">
    <path id="ID0.6278323931619525" fill="url(#grad_1)" stroke="#8C1341" stroke-width="2.5" d="M 93.710 81.997 C 93.710 81.997 44.226 82.018 21.752 82.018 C 15.865 82.018 11.093 77.245 11.093 71.359 C 11.093 65.472 15.865 60.701 21.752 60.701 C 40.594 60.701 93.652 60.679 93.652 60.679 C 93.652 60.679 90.090 57.074 73.657 40.642 C 69.494 36.479 69.494 29.731 73.657 25.569 C 77.822 21.407 84.569 21.406 88.731 25.569 C 102.056 38.892 126.971 63.810 126.971 63.810 C 131.133 67.973 131.133 74.722 126.971 78.883 C 126.971 78.883 105.470 100.385 89.037 116.818 C 84.872 120.983 78.124 120.983 73.963 116.818 C 69.800 112.656 69.800 105.906 73.963 101.747 C 87.288 88.418 93.710 81.997 93.710 81.997 Z " transform="matrix(0.4632912278175354, 0, 0, 0.4632912278175354, -4.15, -9.8)"/>
  </g>
  <path id="ID0.0468368474394083" fill="none" stroke="#000000" stroke-width="2" stroke-linecap="round" d="M 217.900 182.500 C 217.900 182.500 221.043 182.820 222.600 182.650 C 223.372 182.566 224.226 182.323 224.750 181.750 C 225.213 181.243 225.532 180.376 225.250 179.750 C 224.963 179.111 224.093 178.853 223.400 178.750 C 221.786 178.511 219.882 179.370 218.500 178.750 C 217.932 178.495 218.859 177.200 219.500 177 C 220.962 176.543 224.100 177 224.100 177 " transform="matrix(1, 0, 0, 1, -212, -156)"/>
  <path id="ID0.9270539567805827" fill="none" stroke="#000000" stroke-width="2" stroke-linecap="round" d="M 229.900 175.850 C 229.900 175.850 229.600 183.850 229.600 183.850 " transform="matrix(1, 0, 0, 1, -212, -156)"/>
  <path id="ID0.5833847783505917" fill="none" stroke="#000000" stroke-width="2" stroke-linecap="round" d="M 236.250 174.750 C 236.250 174.750 235.400 175.450 235 175.850 C 234.450 176.300 234 176.800 233.500 177.250 C 232.350 178.150 230.100 180 230.100 180 C 229.900 180 231.678 181.857 232.600 182.750 C 233.793 183.906 236.250 186.150 236.250 186.150 " transform="matrix(1, 0, 0, 1, -212, -156)"/>
  <path id="ID0.7632994423620403" fill="none" stroke="#000000" stroke-width="2" stroke-linecap="round" d="M 241 178.250 C 240.374 180.782 240.997 182.031 240.900 182.250 C 240.862 182.335 239.350 181.837 239.400 181.850 Z " transform="matrix(1, 0, 0, 1, -212, -156)"/>
  <path id="ID0.6397458398714662" fill="none" stroke="#000000" stroke-width="2" stroke-linecap="round" d="M 245.250 177.650 C 245.068 179.436 245.040 184.397 245.250 184.250 C 245.465 178.291 248.892 176.151 250.900 176 C 251.566 175.950 252.353 175.766 252.900 176.150 C 253.455 176.539 254.029 177.382 253.750 178 C 253.397 178.781 252.306 178.959 251.500 179.250 C 250.671 179.549 249.774 179.636 248.900 179.750 C 248.239 179.836 247.567 179.831 246.900 179.850 C 246.401 179.864 245.488 179.616 245.400 179.850 Z " transform="matrix(1, 0, 0, 1, -212, -156)"/>
</svg>