<svg version="1.1" width="559" height="364" xmlns="http://www.w3.org/2000/svg" xmlns:xlink="http://www.w3.org/1999/xlink">
  <!-- Exported by Scratch - http://scratch.mit.edu/ -->
  <path id="ID0.27873449958860874" fill="#404040" scratch-type="backdrop-fill" d="M 0 0 L 480 0 L 480 360 L 0 360 L 0 0 L 0 0 L 0 0 L 0 0 Z "/>
  <path id="ID0.8781463508494198" fill="#F2F400" stroke="#000000" stroke-width="3.4215499999999994" stroke-linecap="round" d="M 79 168.100 L 123.800 168.150 L 92.150 360 L -22.750 360.350 L -21.900 277.850 L 79 168.100 L 79 168.100 Z " transform="matrix(1, 0, 0, 0.9108368158340454, 20.1, 32.85)"/>
  <path id="ID0.3025031555444002" fill="#EC00FC" stroke="#000000" stroke-width="3.411575" stroke-linecap="round" d="M 144.800 164.650 L 208.850 164.650 L 218.500 360 L 112.350 359.400 L 144.800 164.650 L 144.800 164.650 L 144.800 164.650 L 144.800 164.650 Z " transform="matrix(1, 0, 0, 0.9003524780273438, 0, 37.3)"/>
  <path id="ID0.5522816758602858" fill="#3CF300" stroke="#000000" stroke-width="3.411575" stroke-linecap="round" d="M 197.450 166.450 L 250.100 166.450 L 301 360.350 L 207.950 359.500 L 197.450 166.450 L 197.450 166.450 L 197.450 166.450 L 197.450 166.450 Z " transform="matrix(1, 0, 0, 0.9077945351600647, 10.5, 34.65)"/>
  <path id="ID0.5954858562909067" fill="#EF9300" stroke="#000000" stroke-width="3.411575" stroke-linecap="round" d="M 228.250 167.250 L 272.100 167.250 L 380.850 360 L 279.950 360 L 228.250 167.250 L 228.250 167.250 L 228.250 167.250 L 228.250 167.250 Z " transform="matrix(1, 0, 0, 0.9097651243209839, 32.35, 33.5)"/>
  <path id="ID0.68778673466295" fill="#3AF1F3" stroke="#000000" stroke-width="3.411575" stroke-linecap="round" d="M 208.750 167.250 L 264.950 167.300 L 458.100 359.900 L 317.600 358.100 L 208.750 167.250 L 208.750 167.250 L 208.750 167.250 L 208.750 167.250 Z " transform="matrix(1, 0, 0, 0.9138051867485046, 96.35, 32.85)"/>
  <path id="ID0.5988378822803497" fill="#F2E7BE" stroke="#000000" stroke-width="3.411575" d="M 67.150 27.200 C 69.937 27.200 72.462 28.281 74.290 30.028 C 76.118 31.775 77.250 34.188 77.250 36.850 C 77.250 39.512 76.118 41.925 74.290 43.672 C 72.462 45.419 69.937 46.500 67.150 46.500 C 64.363 46.500 61.838 45.419 60.010 43.672 C 58.182 41.925 57.050 39.512 57.050 36.850 C 57.050 34.188 58.182 31.775 60.010 30.028 C 61.838 28.281 64.363 27.200 67.150 27.200 L 67.150 27.200 Z "/>
  <path id="ID0.37409245828166604" fill="#C6D5D7" stroke="#000000" stroke-width="3.411575" d="M 134.725 21.950 C 136.539 21.950 138.183 22.636 139.373 23.745 C 140.563 24.854 141.300 26.385 141.300 28.075 C 141.300 29.765 140.563 31.296 139.373 32.405 C 138.183 33.514 136.539 34.200 134.725 34.200 C 132.911 34.200 131.267 33.514 130.077 32.405 C 128.887 31.296 128.150 29.765 128.150 28.075 C 128.150 26.385 128.887 24.854 130.077 23.745 C 131.267 22.636 132.911 21.950 134.725 21.950 L 134.725 21.950 Z "/>
  <path id="ID0.6855733841657639" fill="#D8AFA4" stroke="#000000" stroke-width="3.411575" d="M 31.600 82.500 C 33.780 82.500 35.755 83.483 37.185 85.072 C 38.615 86.660 39.500 88.854 39.500 91.275 C 39.500 93.696 38.615 95.890 37.185 97.478 C 35.755 99.067 33.780 100.050 31.600 100.050 C 29.420 100.050 27.445 99.067 26.015 97.478 C 24.585 95.890 23.700 93.696 23.700 91.275 C 23.700 88.854 24.585 86.660 26.015 85.072 C 27.445 83.483 29.420 82.500 31.600 82.500 L 31.600 82.500 Z "/>
  <path id="ID0.49515233049169183" fill="#CFDEC6" stroke="#000000" stroke-width="3.411575" d="M 229.925 23.700 C 231.863 23.700 233.619 24.487 234.891 25.759 C 236.163 27.031 236.950 28.787 236.950 30.725 C 236.950 32.663 236.163 34.419 234.891 35.691 C 233.619 36.963 231.863 37.750 229.925 37.750 C 227.987 37.750 226.231 36.963 224.959 35.691 C 223.687 34.419 222.900 32.663 222.900 30.725 C 222.900 28.787 223.687 27.031 224.959 25.759 C 226.231 24.487 227.987 23.700 229.925 23.700 L 229.925 23.700 Z "/>
  <path id="ID0.05833235802128911" fill="#D8AFA4" stroke="#000000" stroke-width="3.411575" d="M 322.925 18.450 C 325.829 18.450 328.460 19.629 330.365 21.535 C 332.271 23.440 333.450 26.071 333.450 28.975 C 333.450 31.879 332.271 34.510 330.365 36.415 C 328.460 38.321 325.829 39.500 322.925 39.500 C 320.021 39.500 317.390 38.321 315.485 36.415 C 313.579 34.510 312.400 31.879 312.400 28.975 C 312.400 26.071 313.579 23.440 315.485 21.535 C 317.390 19.629 320.021 18.450 322.925 18.450 L 322.925 18.450 Z "/>
  <path id="ID0.9293232192285359" fill="#EED9C0" stroke="#000000" stroke-width="3.411575" d="M 396.650 26.300 C 398.830 26.300 400.805 27.432 402.235 29.260 C 403.665 31.088 404.550 33.613 404.550 36.400 C 404.550 39.187 403.665 41.712 402.235 43.540 C 400.805 45.368 398.830 46.500 396.650 46.500 C 394.470 46.500 392.495 45.368 391.065 43.540 C 389.635 41.712 388.750 39.187 388.750 36.400 C 388.750 33.613 389.635 31.088 391.065 29.260 C 392.495 27.432 394.470 26.300 396.650 26.300 L 396.650 26.300 Z " transform="matrix(1.2127659320831299, 0, 0, 1, -82.3, 0)"/>
  <path id="ID0.3956606946885586" fill="#ED1000" stroke="#000000" stroke-width="3.411575" d="M 462.050 65.800 C 465.319 65.800 468.282 67.178 470.427 69.405 C 472.572 71.632 473.900 74.707 473.900 78.100 C 473.900 81.493 472.572 84.568 470.427 86.795 C 468.282 89.022 465.319 90.400 462.050 90.400 C 458.781 90.400 455.818 89.022 453.673 86.795 C 451.528 84.568 450.200 81.493 450.200 78.100 C 450.200 74.707 451.528 71.632 453.673 69.405 C 455.818 67.178 458.781 65.800 462.050 65.800 L 462.050 65.800 Z "/>
</svg>